HIERARCHY
ROOT SpineBase
{
  OFFSET 0.000000 0.000000 0.000000
  CHANNELS 6 Xposition Yposition Zposition Zrotation Xrotation Yrotation
  JOINT SpineMid
  {
    OFFSET 0.000000 25.316275 0.000000
    CHANNELS 3 Zrotation Xrotation Yrotation
    JOINT SpineShoulder
    {
      OFFSET 0.119797 18.852626 -0.500233
      CHANNELS 3 Zrotation Xrotation Yrotation
      JOINT Neck
      {
        OFFSET 0.094519 6.247699 -0.378693
        CHANNELS 3 Zrotation Xrotation Yrotation
        JOINT Head
        {
          OFFSET 2.779740 11.829120 1.530280
          CHANNELS 3 Zrotation Xrotation Yrotation
          End Site
          {
            OFFSET 0 0 0
          }
        }
      }
      JOINT ShoulderLeft
      {
        OFFSET -6.165180 -3.548526 -10.623792
        CHANNELS 3 Zrotation Xrotation Yrotation
        JOINT ElbowLeft
        {
          OFFSET -1.854598 -15.713920 -5.252346
          CHANNELS 3 Zrotation Xrotation Yrotation
          JOINT WristLeft
          {
            OFFSET 6.434584 -17.781012 -2.865389
            CHANNELS 3 Zrotation Xrotation Yrotation
            JOINT HandLeft
            {
              OFFSET 0.567685 -2.637169 0.163465
              CHANNELS 3 Zrotation Xrotation Yrotation
              JOINT HandTipLeft
              {
                OFFSET 3.390450 -4.508422 -1.001632
                CHANNELS 3 Zrotation Xrotation Yrotation
                End Site
                {
                  OFFSET 0 0 0
                }
              }
              JOINT ThumbLeft
              {
                OFFSET 1.753018 2.950514 -0.763114
                CHANNELS 3 Zrotation Xrotation Yrotation
                End Site
                {
                  OFFSET 0 0 0
                }
              }
            }
          }
        }
      }
      JOINT ShoulderRight
      {
        OFFSET 5.746393 -6.122509 17.076712
        CHANNELS 3 Zrotation Xrotation Yrotation
        JOINT ElbowRight
        {
          OFFSET 3.575748 4.627022 -19.229248
          CHANNELS 3 Zrotation Xrotation Yrotation
          JOINT WristRight
          {
            OFFSET 0.007996 -16.003113 9.556852
            CHANNELS 3 Zrotation Xrotation Yrotation
            JOINT HandRight
            {
              OFFSET -0.081481 -7.099003 -1.918726
              CHANNELS 3 Zrotation Xrotation Yrotation
              JOINT HandTipRight
              {
                OFFSET 0.303378 -4.005104 1.181812
                CHANNELS 3 Zrotation Xrotation Yrotation
                End Site
                {
                  OFFSET 0 0 0
                }
              }
              JOINT ThumbRight
              {
                OFFSET -0.118632 -0.506233 -3.414913
                CHANNELS 3 Zrotation Xrotation Yrotation
                End Site
                {
                  OFFSET 0 0 0
                }
              }
            }
          }
        }
      }
    }
  }
  JOINT HipLeft
  {
    OFFSET -1.338278 -2.252975 -5.567379
    CHANNELS 3 Zrotation Xrotation Yrotation
    JOINT KneeLeft
    {
      OFFSET -2.434226 -24.761235 -2.140902
      CHANNELS 3 Zrotation Xrotation Yrotation
      JOINT AnkleLeft
      {
        OFFSET -5.597436 -61.134563 -0.723621
        CHANNELS 3 Zrotation Xrotation Yrotation
        JOINT FootLeft
        {
          OFFSET 5.241827 -4.538680 -3.178417
          CHANNELS 3 Zrotation Xrotation Yrotation
          End Site
          {
            OFFSET 0 0 0
          }
        }
      }
    }
  }
  JOINT HipRight
  {
    OFFSET 2.005712 3.248048 1.207487
    CHANNELS 3 Zrotation Xrotation Yrotation
    JOINT KneeRight
    {
      OFFSET -8.172955 -20.536817 8.944297
      CHANNELS 3 Zrotation Xrotation Yrotation
      JOINT AnkleRight
      {
        OFFSET -3.590494 -33.054691 6.995721
        CHANNELS 3 Zrotation Xrotation Yrotation
        JOINT FootRight
        {
          OFFSET 7.597675 -3.254744 -4.925137
          CHANNELS 3 Zrotation Xrotation Yrotation
          End Site
          {
            OFFSET 0 0 0
          }
        }
      }
    }
  }
}
MOTION
Frames: 12
Frame Time: 0.033333
-55.247167 93.432027 307.771095 -0.000000 0.000000 -63.729625 -0.000000 0.000000 63.729625 -0.000000 0.000000 0.000000 -0.000000 0.000000 0.000000 0.000000 0.000000 0.000000 -0.000000 0.000000 0.000000 -0.000000 0.000000 0.000000 -0.000000 0.000000 0.000000 -0.000000 0.000000 0.000000 0.000000 0.000000 0.000000 0.000000 0.000000 0.000000 -0.000000 0.000000 0.000000 -0.000000 0.000000 0.000000 -0.000000 0.000000 0.000000 -0.000000 0.000000 0.000000 0.000000 0.000000 0.000000 0.000000 0.000000 0.000000 -0.000000 0.000000 63.729625 -0.000000 0.000000 0.000000 -0.000000 0.000000 0.000000 0.000000 0.000000 0.000000 -0.000000 0.000000 63.729625 -0.000000 0.000000 0.000000 -0.000000 0.000000 0.000000 0.000000 0.000000 0.000000
-55.404128 93.227589 307.770389 -0.048570 0.106634 -64.561714 0.117158 -0.001942 64.561761 -0.000000 0.000000 0.000000 -0.000000 0.000000 0.000000 0.000000 0.000000 0.000000 3.685830 1.819908 -1.503418 -5.712750 -3.807196 0.950232 3.534351 1.192191 0.201970 -5.850298 -0.771475 -0.039965 0.000000 0.000000 0.000000 0.000000 0.000000 0.000000 0.193338 0.874684 0.130348 -0.195350 -0.874237 -0.133314 0.868155 -6.973760 -0.103318 -0.412328 8.330822 0.390825 0.000000 0.000000 0.000000 0.000000 0.000000 0.000000 0.117158 -0.001942 64.561761 -0.000000 0.000000 0.000000 -3.537698 -0.077652 2.475227 0.000000 0.000000 0.000000 -1.074595 0.355179 63.991293 0.201718 -1.227643 0.576303 -0.000000 0.000000 0.000000 0.000000 0.000000 0.000000
-55.542172 93.061246 307.755351 -0.095208 0.213565 -65.254181 0.233807 -0.002932 65.254365 -0.000000 0.000000 0.000000 -0.000000 0.000000 0.000000 0.000000 0.000000 0.000000 6.708965 3.234312 -2.808834 -10.341266 -7.120987 1.441042 5.876598 2.640207 0.340612 -10.105337 -1.952596 -0.318459 0.000000 0.000000 0.000000 0.000000 0.000000 0.000000 0.359099 1.643267 0.231582 -0.365887 -1.641769 -0.241975 1.657579 -13.672582 -0.094714 -0.603071 17.978380 0.854302 0.000000 0.000000 0.000000 0.000000 0.000000 0.000000 0.233807 -0.002932 65.254365 -0.000000 0.000000 0.000000 -6.281995 -0.263897 4.366184 0.000000 0.000000 0.000000 -1.960025 0.643304 64.213861 0.372956 -2.256390 1.060110 -0.000000 0.000000 0.000000 0.000000 0.000000 0.000000
-55.661300 92.932998 307.725982 -0.140179 0.321303 -65.821867 0.350531 -0.003715 65.822272 0.506767 0.944789 0.012252 -1.371714 -1.357036 0.170575 0.000000 0.000000 0.000000 8.608731 3.382260 -3.767274 -14.006768 -9.893123 1.632069 7.541068 4.042977 0.444914 -13.205961 -3.215499 -0.819507 0.000000 0.000000 0.000000 0.000000 0.000000 0.000000 -0.008411 1.360408 0.292271 -0.510720 -2.302425 -0.324953 2.332047 -19.730887 0.004148 -0.471724 29.769989 1.346173 0.000000 0.000000 0.000000 0.000000 0.000000 0.000000 0.350531 -0.003715 65.822272 -0.000000 0.000000 0.000000 -8.206709 -0.475129 5.654890 0.000000 0.000000 0.000000 -2.653563 0.872328 64.408979 0.508762 -3.087515 1.449781 -0.000000 0.000000 0.000000 0.000000 0.000000 0.000000
-55.761511 92.842846 307.682282 -0.183727 0.430350 -66.276284 -0.132677 0.590355 66.283098 0.274068 0.357283 0.014719 -1.653942 -1.664193 0.210702 0.000000 0.000000 0.000000 10.392680 4.003932 -4.567663 -16.798833 -12.113591 1.647836 8.677723 5.317430 0.542176 -15.263809 -4.464586 -1.507808 0.000000 0.000000 0.000000 0.000000 0.000000 0.000000 0.033686 1.713632 0.339230 -0.629133 -2.856267 -0.381391 2.849546 -24.852921 0.156890 0.014111 44.716537 1.788170 0.000000 0.000000 0.000000 0.000000 0.000000 0.000000 0.467901 -0.004937 66.276994 -0.000000 0.000000 0.000000 -9.312382 -0.653284 6.344349 0.000000 0.000000 0.000000 -3.153733 1.048257 64.585539 0.605197 -3.722667 1.744109 -0.000000 0.000000 0.000000 0.000000 0.000000 0.000000
-55.842806 92.790789 307.624250 -0.226077 0.541211 -66.626130 -0.139964 0.644906 66.633634 0.290742 0.369913 0.014905 -1.848685 -1.901325 0.244846 0.000000 0.000000 0.000000 11.715676 4.458187 -5.157030 -18.779287 -13.790654 1.580706 9.339539 6.443351 0.655190 -16.315492 -5.681070 -2.348459 0.000000 0.000000 0.000000 0.000000 0.000000 0.000000 0.097061 2.012912 0.361787 -0.412618 -2.492620 -0.213580 2.781692 -29.652640 0.159090 0.595764 61.925626 2.136819 0.000000 0.000000 0.000000 0.000000 0.000000 0.000000 0.586487 -0.007185 66.627235 -0.000000 0.000000 0.000000 -9.605733 -0.766805 6.441804 0.000000 0.000000 0.000000 -3.459722 1.175530 64.750204 0.659305 -4.163463 1.942269 0.255364 -0.203975 -0.859942 0.000000 0.000000 0.000000
-55.922472 92.685085 307.538849 -0.270666 0.696920 -67.273701 -0.145903 0.712173 67.282597 0.300946 0.356428 0.015342 -2.312659 -2.297619 0.333453 0.000000 0.000000 0.000000 12.205848 4.478860 -5.353181 -19.295227 -14.491832 1.508347 9.164804 6.834672 0.760655 -15.475051 -5.958998 -2.737258 0.000000 0.000000 0.000000 0.000000 0.000000 0.000000 0.160337 2.345752 0.366740 -0.460438 -2.883061 -0.192881 2.605710 -30.078753 0.144691 -1.072183 68.312805 3.595936 0.000000 0.000000 0.000000 0.000000 0.000000 0.000000 1.655568 0.169182 67.304115 -0.524581 0.765031 -0.026324 -9.096789 -0.856827 5.893766 0.000000 0.000000 0.000000 -3.752120 1.259508 65.199076 0.730344 -4.620181 2.154575 0.294769 -0.242023 -1.007535 0.000000 0.000000 0.000000
-55.966639 92.667703 307.440722 -0.308725 0.852471 -67.723692 -0.130296 0.701539 67.732143 0.278127 0.313155 0.012636 -2.421961 -2.504466 0.378041 0.000000 0.000000 0.000000 11.678192 4.033357 -5.036793 -17.963554 -13.757227 1.519369 8.457424 7.825587 1.112143 -13.830409 -8.580645 -5.010501 0.000000 0.000000 0.000000 0.000000 0.000000 0.000000 0.271931 2.565507 0.340434 -0.476308 -3.110488 -0.141967 3.253171 -35.540239 0.405661 -41.676608 86.070168 42.736208 0.000000 0.000000 0.000000 0.000000 0.000000 0.000000 2.007596 0.101384 67.773569 -0.545306 0.967333 -0.043295 -7.954454 -1.113249 4.616061 0.000000 0.000000 0.000000 -3.773875 1.277087 65.576051 0.742565 -4.803585 2.232036 0.311956 -0.264662 -1.086011 0.000000 0.000000 0.000000
-55.977419 92.756281 307.340033 -0.339318 0.978669 -67.621002 -0.097814 0.622732 67.626991 0.228262 0.241464 0.007224 -2.310571 -2.537767 0.399648 0.000000 0.000000 0.000000 12.364365 4.545731 -5.334693 -18.707894 -14.740823 1.439717 7.804838 8.661559 1.317311 -11.338993 -9.575197 -5.822874 0.000000 0.000000 0.000000 0.000000 0.000000 0.000000 0.407742 2.616491 0.282236 -0.453173 -3.136079 -0.064020 2.617432 -33.388329 0.257860 -27.789880 82.035089 27.883837 0.000000 0.000000 0.000000 0.000000 0.000000 0.000000 2.242221 0.053603 67.681425 -0.562841 1.074862 -0.051659 -5.443895 -0.990620 2.793785 0.000000 0.000000 0.000000 -3.432147 1.282281 65.591357 0.628262 -4.620530 2.106133 0.303966 -0.270128 -1.086936 0.000000 0.000000 0.000000
-55.954000 92.941749 307.224052 -0.381876 1.053756 -67.050659 -0.037128 0.452574 67.051226 0.149430 0.138976 -0.002002 -1.647649 -2.214337 0.343146 0.000000 0.000000 0.000000 13.390148 5.663859 -5.849216 -19.972767 -16.371439 1.269095 7.399806 10.712517 1.743016 -9.851703 -11.277455 -6.598211 0.000000 0.000000 0.000000 0.000000 0.000000 0.000000 0.590066 2.474585 0.192373 -0.393500 -2.911326 0.032322 0.987902 -28.448470 0.070660 -9.352642 77.479081 11.434651 0.000000 0.000000 0.000000 0.000000 0.000000 0.000000 2.337547 0.048047 67.111522 -0.572711 1.080648 -0.051253 -1.387620 -0.340446 0.583854 0.000000 0.000000 0.000000 -2.675386 1.256983 65.358260 0.388226 -3.997359 1.749717 0.251957 -0.242119 -0.944073 0.000000 0.000000 0.000000
-55.921785 93.173294 307.144491 -0.414977 1.070153 -66.137152 0.004563 0.306371 66.132993 0.074802 0.072507 -0.010729 -0.805280 -1.840726 0.247205 0.000000 0.000000 0.000000 14.550988 6.249266 -6.325684 -21.422898 -17.212776 1.301134 6.200279 11.411041 1.972937 -6.371021 -11.690318 -6.589603 0.000000 0.000000 0.000000 0.000000 0.000000 0.000000 0.807720 2.606434 0.166108 -0.380517 -2.904369 0.072521 -0.852118 -32.207705 0.115693 3.118801 81.902715 1.742061 0.000000 0.000000 0.000000 0.000000 0.000000 0.000000 2.273665 0.088836 66.186287 -0.585260 0.973721 -0.040101 1.399161 -0.000581 -0.966884 0.000000 0.000000 0.000000 -2.141490 1.227506 64.684197 0.249723 -3.519659 1.498737 -0.000000 0.000000 0.000000 0.000000 0.000000 0.000000
-55.863898 93.411634 307.105600 -0.417175 1.023769 -65.376227 0.026542 0.149208 65.367442 0.003527 0.015326 -0.018496 0.267530 -1.076980 0.035005 0.000000 0.000000 0.000000 15.298704 6.853401 -6.667113 -22.162287 -17.908598 1.265804 4.552993 11.815758 2.246291 -3.812390 -11.962181 -6.495093 0.000000 0.000000 0.000000 0.000000 0.000000 0.000000 1.007922 2.779259 0.147662 -0.370844 -2.898656 0.100891 -3.246304 -29.531597 0.088290 3.051527 79.504883 2.454702 0.000000 0.000000 0.000000 0.000000 0.000000 0.000000 2.133964 0.124196 65.414181 -0.584298 0.864789 -0.030053 3.485917 -0.205258 -2.584689 0.000000 0.000000 0.000000 -1.638216 1.075071 64.159958 0.186254 -2.957464 1.249864 -0.000000 0.000000 0.000000 0.000000 0.000000 0.000000
